<svg width="347" height="78" viewBox="0 0 347 78" fill="none" xmlns="http://www.w3.org/2000/svg">
<path d="M31.4835 58.308C30.1683 60.0422 25.7543 60.8948 24.2986 60.7571C24.9973 66.9922 31.2346 69.2737 34.2658 69.6351C32.2934 67.2621 31.1753 61.2156 31.4835 58.308Z" fill="url(#paint0_linear_840_224)"/>
<path d="M31.3074 9.69494C47.8663 9.68208 61.2991 23.1588 61.3121 39.7944C61.3241 55.5556 49.2849 68.4885 33.9365 69.8162L33.9402 69.6945L33.9439 69.6392L33.9108 69.5912C31.712 66.0849 30.7081 63.0479 30.5182 60.2884C30.3286 57.5296 30.9517 55.0291 32.0345 52.5976C33.1188 50.1637 34.6591 47.8019 36.301 45.3125C37.9407 42.8263 39.6824 40.2128 41.1438 37.2934L41.6542 36.1758C43.9797 30.5492 43.0966 24.1557 40.5636 19.0641C38.1079 14.129 34.0666 10.365 29.8167 9.73182C30.3106 9.70714 30.8076 9.69533 31.3074 9.69494Z" fill="#FCFCFC"/>
<path d="M52.024 33.3675C54.9508 31.8618 57.4676 27.6851 57.8751 25.8507C59.0328 27.7043 62.8614 35.6907 60.6441 46.1296C57.0058 63.2586 41.447 69.7973 33.6379 69.9978C32.5434 68.1864 30.4373 63.3412 30.4845 59.1896C30.5476 53.6447 34.2475 46.8741 37.918 43.0587C42.4804 38.3163 50.2958 33.5601 50.6712 30.6787C50.6689 30.6712 50.6695 30.6662 50.6732 30.6634C50.6726 30.6685 50.6719 30.6736 50.6712 30.6787C50.7032 30.7838 51.294 31.3862 52.024 33.3675Z" fill="url(#paint1_linear_840_224)"/>
<path d="M33.6393 41.3676C38.9385 37.34 39.3483 32.2097 39.4123 30.171C39.4551 28.8113 38.9645 26.299 36.6601 27.1272C34.4983 27.7664 29.2858 28.3088 25.7298 25.3647C22.1739 22.4207 15.927 22.6806 13.248 23.1785C12.1423 21.8099 8.65303 18.731 6.56499 17.4859C4.64969 20.7742 4.31843 23.7217 4.20275 26.083C2.9514 28.6321 0.614257 34.2588 0.878887 40.3639C1.12346 46.0037 2.47514 54.9927 11.8112 63.1338C20.5571 70.3171 30.5513 70.637 34.4552 69.899C25.812 66.9974 24.5821 58.646 25.0476 54.8331C25.4689 52.566 27.0153 46.402 33.6393 41.3676Z" fill="url(#paint2_linear_840_224)"/>
<path d="M10.9328 54.2358C9.09458 53.6094 8.51825 53.4378 8.42441 53.4243C8.42243 53.4269 8.42046 53.4294 8.4185 53.432C8.40616 53.4249 8.40624 53.4216 8.42441 53.4243C9.11324 52.5195 10.988 50.572 13.0292 49.9564C10.929 49.2636 10.1214 49.1452 9.98017 49.1726C11.3668 47.0025 15.7374 42.1587 22.1263 40.144C27.0472 38.6532 37.2762 34.0889 38.9807 27.9348C40.8834 31.2077 38.0219 37.4586 35.031 40.2367C30.0972 44.6445 26.8755 48.025 25.3606 53.4189C24.3497 57.1682 24.7153 65.717 34.265 69.918C28.6299 70.8346 15.1261 69.5798 6.50138 57.3905C7.62295 55.661 9.94886 54.5804 10.9328 54.2358Z" fill="#FCFCFC"/>
<path d="M23.5859 27.9555C22.9675 28.2512 20.2248 30.1765 18.9109 31.1162C19.0725 29.9062 19.3006 28.5177 19.3979 27.9555C19.9923 27.7123 22.4376 27.8542 23.5859 27.9555Z" fill="white"/>
<path d="M13.0339 16.8656L10.0202 20.1425C11.0326 20.8063 12.5423 22.4891 13.2401 23.2379C14.1202 22.8769 17.3685 23.0218 18.9458 23.0206C18.945 21.9649 14.981 18.4443 13.0339 16.8656Z" fill="url(#paint3_linear_840_224)"/>
<path d="M76.9685 51.926L76.4565 38.166L96.2965 16.598H109.737L76.9685 51.926ZM71.0165 61.398V16.598H81.2565V61.398H71.0165ZM97.6405 61.398L80.0405 38.614L87.6565 32.534L110.377 61.398H97.6405ZM120.976 44.822C120.976 41.366 121.659 38.486 123.024 36.182C124.432 33.878 126.181 32.15 128.272 30.998C130.405 29.846 132.624 29.27 134.928 29.27V38.998C132.965 38.998 131.109 39.2114 129.36 39.638C127.653 40.0647 126.267 40.726 125.2 41.622C124.133 42.4754 123.6 43.5847 123.6 44.95L120.976 44.822ZM113.616 61.398V29.398H123.6V61.398H113.616ZM158.124 61.398L157.804 54.486V45.462C157.804 43.7554 157.655 42.262 157.356 40.982C157.1 39.702 156.567 38.7207 155.756 38.038C154.988 37.3127 153.857 36.95 152.364 36.95C151.169 36.95 150.124 37.2274 149.228 37.782C148.332 38.3367 147.564 39.0834 146.924 40.022L138.156 37.142C138.924 35.5634 139.927 34.134 141.164 32.854C142.444 31.574 144.001 30.55 145.836 29.782C147.671 29.014 149.804 28.63 152.236 28.63C155.564 28.63 158.38 29.2487 160.684 30.486C162.988 31.7234 164.716 33.4514 165.868 35.67C167.02 37.8887 167.596 40.5127 167.596 43.542L167.468 61.398H158.124ZM149.356 62.166C145.601 62.166 142.679 61.334 140.588 59.67C138.497 57.9634 137.452 55.5314 137.452 52.374C137.452 49.0034 138.54 46.486 140.716 44.822C142.892 43.158 145.943 42.326 149.868 42.326H158.636V48.79H153.58C151.489 48.79 149.975 49.0887 149.036 49.686C148.097 50.2407 147.628 51.0514 147.628 52.118C147.628 52.886 147.969 53.5047 148.652 53.974C149.377 54.4007 150.359 54.614 151.596 54.614C152.833 54.614 153.9 54.358 154.796 53.846C155.735 53.2914 156.46 52.566 156.972 51.67C157.527 50.774 157.804 49.814 157.804 48.79H160.364C160.364 53.014 159.447 56.2994 157.612 58.646C155.82 60.9927 153.068 62.166 149.356 62.166ZM172.079 61.398V54.358L186.415 37.526H172.079V29.398H198.831V36.438L184.431 53.334H198.895V61.398H172.079ZM211.868 74.966C210.502 74.966 209.052 74.71 207.516 74.198C206.022 73.686 204.764 73.1314 203.74 72.534L207.452 64.406C208.049 64.8327 208.625 65.1527 209.18 65.366C209.777 65.5794 210.31 65.686 210.78 65.686C211.59 65.686 212.316 65.4727 212.956 65.046C213.596 64.662 214.108 64.022 214.492 63.126L218.268 54.23L227.676 29.398H238.748L224.604 63.318C223.665 65.622 222.684 67.6487 221.66 69.398C220.636 71.1474 219.356 72.5127 217.82 73.494C216.326 74.4754 214.342 74.966 211.868 74.966ZM215.644 61.398L200.668 29.398H211.74L221.788 54.23L225.18 61.398H215.644Z" fill="white"/>
<path d="M243.204 61.398V16.598H272.9V26.07H253.508V34.71H269.188V44.118H253.508V61.398H243.204ZM292.792 62.166C289.421 62.166 286.456 61.462 283.896 60.054C281.336 58.6034 279.309 56.6194 277.816 54.102C276.365 51.5847 275.64 48.6834 275.64 45.398C275.64 42.1127 276.344 39.2114 277.752 36.694C279.202 34.1767 281.208 32.214 283.768 30.806C286.37 29.3554 289.314 28.63 292.6 28.63C295.97 28.63 298.936 29.3554 301.496 30.806C304.098 32.214 306.104 34.1767 307.512 36.694C308.962 39.2114 309.688 42.1127 309.688 45.398C309.688 48.6834 308.962 51.5847 307.512 54.102C306.104 56.6194 304.12 58.6034 301.56 60.054C299 61.462 296.077 62.166 292.792 62.166ZM292.792 52.95C294.072 52.95 295.202 52.63 296.184 51.99C297.208 51.35 297.997 50.4754 298.552 49.366C299.149 48.214 299.448 46.8914 299.448 45.398C299.448 43.9047 299.149 42.6034 298.552 41.494C297.997 40.342 297.208 39.446 296.184 38.806C295.16 38.166 293.986 37.846 292.664 37.846C291.341 37.846 290.168 38.166 289.144 38.806C288.12 39.446 287.309 40.342 286.712 41.494C286.157 42.6034 285.88 43.9047 285.88 45.398C285.88 46.8914 286.157 48.214 286.712 49.366C287.309 50.4754 288.12 51.35 289.144 51.99C290.21 52.63 291.426 52.95 292.792 52.95ZM310.367 61.398L323.551 43.158L332.639 29.398H344.415L331.423 47.51L322.271 61.398H310.367ZM333.343 61.398L324.319 47.51L311.199 29.398H322.975L332.127 43.158L345.183 61.398H333.343Z" fill="white"/>
<defs>
<linearGradient id="paint0_linear_840_224" x1="34.5131" y1="58.5458" x2="26.2805" y2="69.6332" gradientUnits="userSpaceOnUse">
<stop stop-color="#F17C10"/>
<stop offset="1" stop-color="#F2A530"/>
</linearGradient>
<linearGradient id="paint1_linear_840_224" x1="62.0781" y1="26.7739" x2="28.678" y2="62.5717" gradientUnits="userSpaceOnUse">
<stop stop-color="#F17C10"/>
<stop offset="1" stop-color="#F2A530"/>
</linearGradient>
<linearGradient id="paint2_linear_840_224" x1="40.3628" y1="18.5661" x2="0.636965" y2="63.1246" gradientUnits="userSpaceOnUse">
<stop stop-color="#F17C10"/>
<stop offset="1" stop-color="#F2A530"/>
</linearGradient>
<linearGradient id="paint3_linear_840_224" x1="19.1625" y1="16.9946" x2="15.4607" y2="24.9441" gradientUnits="userSpaceOnUse">
<stop stop-color="#F17C10"/>
<stop offset="1" stop-color="#F2A530"/>
</linearGradient>
</defs>
</svg>
